<?xml version="1.0" encoding="UTF-8" standalone="no"?>
<!-- Created with Inkscape (http://www.inkscape.org/) -->

<svg
   xmlns:dc="http://purl.org/dc/elements/1.1/"
   xmlns:cc="http://creativecommons.org/ns#"
   xmlns:rdf="http://www.w3.org/1999/02/22-rdf-syntax-ns#"
   xmlns:svg="http://www.w3.org/2000/svg"
   xmlns="http://www.w3.org/2000/svg"
   xmlns:sodipodi="http://sodipodi.sourceforge.net/DTD/sodipodi-0.dtd"
   xmlns:inkscape="http://www.inkscape.org/namespaces/inkscape"
   width="793.70081"
   height="1122.5197"
   viewBox="0 0 210 297"
   version="1.1"
   id="svg27489"
   inkscape:version="0.92.2 (5c3e80d, 2017-08-06)"
   sodipodi:docname="icons.svg">
  <defs
     id="defs27483" />
  <sodipodi:namedview
     id="base"
     pagecolor="#ffffff"
     bordercolor="#666666"
     borderopacity="1.0"
     inkscape:pageopacity="0.0"
     inkscape:pageshadow="2"
     inkscape:zoom="90.509668"
     inkscape:cx="200.67921"
     inkscape:cy="978.1802"
     inkscape:document-units="mm"
     inkscape:current-layer="layer1"
     showgrid="true"
     units="px"
     inkscape:window-width="2560"
     inkscape:window-height="1377"
     inkscape:window-x="2552"
     inkscape:window-y="-8"
     inkscape:window-maximized="1"
     inkscape:snap-global="true"
     inkscape:snap-midpoints="true"
     inkscape:snap-bbox="true"
     inkscape:snap-bbox-midpoints="true"
     inkscape:bbox-nodes="true">
    <inkscape:grid
       type="xygrid"
       id="grid28034"
       empspacing="4"
       spacingx="0.13229167"
       spacingy="0.13229167" />
  </sodipodi:namedview>
  <metadata
     id="metadata27486">
    <rdf:RDF>
      <cc:Work
         rdf:about="">
        <dc:format>image/svg+xml</dc:format>
        <dc:type
           rdf:resource="http://purl.org/dc/dcmitype/StillImage" />
        <dc:title></dc:title>
      </cc:Work>
    </rdf:RDF>
  </metadata>
  <g
     inkscape:label="Layer 1"
     inkscape:groupmode="layer"
     id="layer1">
    <rect
       style="opacity:1;fill:none;fill-opacity:1;stroke:#000000;stroke-width:0.02645833;stroke-linecap:round;stroke-linejoin:miter;stroke-miterlimit:4;stroke-dasharray:none;stroke-opacity:1"
       id="rect28036"
       width="6.3499999"
       height="6.3499999"
       x="21.166666"
       y="36.64999" />
    <rect
       y="37.179157"
       x="21.695833"
       height="5.2916665"
       width="5.2916665"
       id="rect28038"
       style="opacity:1;fill:none;fill-opacity:1;stroke:#ff0000;stroke-width:0.02204861;stroke-linecap:round;stroke-linejoin:miter;stroke-miterlimit:4;stroke-dasharray:none;stroke-opacity:1" />
    <path
       style="fill:none;stroke:#000000;stroke-width:0.396875;stroke-linecap:butt;stroke-linejoin:miter;stroke-miterlimit:4;stroke-dasharray:none;stroke-opacity:1"
       d="m 25.929167,41.941658 -3.175,-4.233333 h 3.175"
       id="path28040"
       inkscape:connector-curvature="0"
       sodipodi:nodetypes="cc" />
    <path
       style="fill:none;stroke:#000000;stroke-width:0.396875;stroke-linecap:butt;stroke-linejoin:miter;stroke-miterlimit:4;stroke-dasharray:none;stroke-opacity:1"
       d="m 25.929167,37.708325 -3.175,4.233333 h 3.175"
       id="path28042"
       inkscape:connector-curvature="0"
       sodipodi:nodetypes="cc" />
    <path
       sodipodi:nodetypes="cc"
       inkscape:connector-curvature="0"
       id="path28045"
       d="m 22.754167,41.941658 3.175,-4.233333 h -3.175"
       style="fill:none;stroke:#000000;stroke-width:0.396875;stroke-linecap:butt;stroke-linejoin:miter;stroke-miterlimit:4;stroke-dasharray:none;stroke-opacity:1" />
    <path
       sodipodi:nodetypes="cc"
       inkscape:connector-curvature="0"
       id="path28047"
       d="m 22.754167,37.708325 3.175,4.233333 h -3.175"
       style="fill:none;stroke:#000000;stroke-width:0.396875;stroke-linecap:butt;stroke-linejoin:miter;stroke-miterlimit:4;stroke-dasharray:none;stroke-opacity:1" />
    <path
       style="fill:#000000;stroke:none;stroke-width:0.39687499;stroke-linecap:butt;stroke-linejoin:miter;stroke-miterlimit:4;stroke-dasharray:none;stroke-opacity:1"
       d="m 23.01875,38.237492 h 2.645833 l -1.322917,1.587498 z"
       id="path28051"
       inkscape:connector-curvature="0"
       sodipodi:nodetypes="cccc" />
    <rect
       y="36.64999"
       x="28.575001"
       height="6.3499999"
       width="6.3499999"
       id="rect28055"
       style="opacity:1;fill:none;fill-opacity:1;stroke:#000000;stroke-width:0.02645833;stroke-linecap:round;stroke-linejoin:miter;stroke-miterlimit:4;stroke-dasharray:none;stroke-opacity:1" />
    <rect
       style="opacity:1;fill:none;fill-opacity:1;stroke:#ff0000;stroke-width:0.02204861;stroke-linecap:round;stroke-linejoin:miter;stroke-miterlimit:4;stroke-dasharray:none;stroke-opacity:1"
       id="rect28057"
       width="5.2916665"
       height="5.2916665"
       x="29.104168"
       y="37.179157" />
    <g
       id="g28099">
      <path
         style="fill:none;stroke:#000000;stroke-width:0.396875;stroke-linecap:butt;stroke-linejoin:miter;stroke-miterlimit:4;stroke-dasharray:none;stroke-opacity:1"
         d="m 33.337501,41.941658 -3.175,-4.233333 h 3.175"
         id="path28059"
         inkscape:connector-curvature="0"
         sodipodi:nodetypes="cc" />
      <path
         style="fill:none;stroke:#000000;stroke-width:0.396875;stroke-linecap:butt;stroke-linejoin:miter;stroke-miterlimit:4;stroke-dasharray:none;stroke-opacity:1"
         d="m 33.337501,37.708325 -3.175,4.233333 h 3.175"
         id="path28061"
         inkscape:connector-curvature="0"
         sodipodi:nodetypes="cc" />
      <path
         sodipodi:nodetypes="cc"
         inkscape:connector-curvature="0"
         id="path28063"
         d="m 30.162501,41.941658 3.175,-4.233333 h -3.175"
         style="fill:none;stroke:#000000;stroke-width:0.396875;stroke-linecap:butt;stroke-linejoin:miter;stroke-miterlimit:4;stroke-dasharray:none;stroke-opacity:1" />
      <path
         sodipodi:nodetypes="cc"
         inkscape:connector-curvature="0"
         id="path28065"
         d="m 30.162501,37.708325 3.175,4.233333 h -3.175"
         style="fill:none;stroke:#000000;stroke-width:0.396875;stroke-linecap:butt;stroke-linejoin:miter;stroke-miterlimit:4;stroke-dasharray:none;stroke-opacity:1" />
      <path
         sodipodi:nodetypes="cccc"
         inkscape:connector-curvature="0"
         id="path28069"
         d="m 30.691667,38.502075 h 2.116666 L 31.75,39.82499 Z"
         style="fill:#000000;stroke:none;stroke-width:0.26458332px;stroke-linecap:butt;stroke-linejoin:miter;stroke-opacity:1" />
      <path
         sodipodi:nodetypes="ccccc"
         inkscape:connector-curvature="0"
         id="path28073"
         d="m 30.691667,41.147908 2.116666,0 0.529167,0.793749 h -3.175 z"
         style="fill:#000000;stroke:none;stroke-width:0.26458332px;stroke-linecap:butt;stroke-linejoin:miter;stroke-opacity:1" />
    </g>
    <rect
       style="opacity:1;fill:none;fill-opacity:1;stroke:#000000;stroke-width:0.02645833;stroke-linecap:round;stroke-linejoin:miter;stroke-miterlimit:4;stroke-dasharray:none;stroke-opacity:1"
       id="rect28075"
       width="6.3499999"
       height="6.3499999"
       x="35.983334"
       y="36.64999" />
    <rect
       y="37.179157"
       x="36.512501"
       height="5.2916665"
       width="5.2916665"
       id="rect28077"
       style="opacity:1;fill:none;fill-opacity:1;stroke:#ff0000;stroke-width:0.02204861;stroke-linecap:round;stroke-linejoin:miter;stroke-miterlimit:4;stroke-dasharray:none;stroke-opacity:1" />
    <path
       style="fill:none;stroke:#000000;stroke-width:0.396875;stroke-linecap:butt;stroke-linejoin:miter;stroke-miterlimit:4;stroke-dasharray:none;stroke-opacity:1"
       d="m 40.745834,41.941658 -3.175,-4.233333 h 3.175"
       id="path28079"
       inkscape:connector-curvature="0"
       sodipodi:nodetypes="cc" />
    <path
       style="fill:none;stroke:#000000;stroke-width:0.396875;stroke-linecap:butt;stroke-linejoin:miter;stroke-miterlimit:4;stroke-dasharray:none;stroke-opacity:1"
       d="m 40.745834,37.708325 -3.175,4.233333 h 3.175"
       id="path28081"
       inkscape:connector-curvature="0"
       sodipodi:nodetypes="cc" />
    <path
       sodipodi:nodetypes="cc"
       inkscape:connector-curvature="0"
       id="path28083"
       d="m 37.570834,41.941658 3.175,-4.233333 h -3.175"
       style="fill:none;stroke:#000000;stroke-width:0.396875;stroke-linecap:butt;stroke-linejoin:miter;stroke-miterlimit:4;stroke-dasharray:none;stroke-opacity:1" />
    <path
       sodipodi:nodetypes="cc"
       inkscape:connector-curvature="0"
       id="path28085"
       d="m 37.570834,37.708325 3.175,4.233333 h -3.175"
       style="fill:none;stroke:#000000;stroke-width:0.396875;stroke-linecap:butt;stroke-linejoin:miter;stroke-miterlimit:4;stroke-dasharray:none;stroke-opacity:1" />
    <path
       style="fill:#000000;stroke:none;stroke-width:0.26458332px;stroke-linecap:butt;stroke-linejoin:miter;stroke-opacity:1"
       d="m 38.364583,40.883324 -0.79375,1.058333 h 3.175 l -0.79375,-1.058333 h -1.5875"
       id="path28091"
       inkscape:connector-curvature="0" />
    <rect
       y="36.64999"
       x="43.391666"
       height="6.3499999"
       width="6.3499999"
       id="rect28175"
       style="opacity:1;fill:none;fill-opacity:1;stroke:#000000;stroke-width:0.02645833;stroke-linecap:round;stroke-linejoin:miter;stroke-miterlimit:4;stroke-dasharray:none;stroke-opacity:1" />
    <rect
       style="opacity:1;fill:none;fill-opacity:1;stroke:#ff0000;stroke-width:0.02204861;stroke-linecap:round;stroke-linejoin:miter;stroke-miterlimit:4;stroke-dasharray:none;stroke-opacity:1"
       id="rect28177"
       width="5.2916665"
       height="5.2916665"
       x="43.920834"
       y="37.179157" />
    <path
       sodipodi:nodetypes="cc"
       inkscape:connector-curvature="0"
       id="path28179"
       d="m 48.154167,41.941658 -3.175,-4.233333 h 3.175"
       style="fill:none;stroke:#000000;stroke-width:0.39687499;stroke-linecap:butt;stroke-linejoin:miter;stroke-miterlimit:4;stroke-dasharray:none;stroke-opacity:1" />
    <path
       sodipodi:nodetypes="cc"
       inkscape:connector-curvature="0"
       id="path28181"
       d="m 48.154167,37.708325 -3.175,4.233333 h 3.175"
       style="fill:none;stroke:#000000;stroke-width:0.39687499;stroke-linecap:butt;stroke-linejoin:miter;stroke-miterlimit:4;stroke-dasharray:none;stroke-opacity:1" />
    <path
       style="fill:none;stroke:#000000;stroke-width:0.39687499;stroke-linecap:butt;stroke-linejoin:miter;stroke-miterlimit:4;stroke-dasharray:none;stroke-opacity:1"
       d="m 44.979167,41.941658 3.175,-4.233333 h -3.175"
       id="path28183"
       inkscape:connector-curvature="0"
       sodipodi:nodetypes="cc" />
    <path
       style="fill:none;stroke:#000000;stroke-width:0.39687499;stroke-linecap:butt;stroke-linejoin:miter;stroke-miterlimit:4;stroke-dasharray:none;stroke-opacity:1"
       d="m 44.979167,37.708325 3.175,4.233333 h -3.175"
       id="path28185"
       inkscape:connector-curvature="0"
       sodipodi:nodetypes="cc" />
    <path
       style="fill:none;stroke:#000000;stroke-width:0.5291667;stroke-linecap:butt;stroke-linejoin:miter;stroke-miterlimit:4;stroke-dasharray:none;stroke-opacity:1"
       d="m 44.185417,38.502075 4.7625,2.645833"
       id="path28189"
       inkscape:connector-curvature="0"
       sodipodi:nodetypes="cc" />
    <path
       sodipodi:nodetypes="cc"
       inkscape:connector-curvature="0"
       id="path28193"
       d="M 44.508465,38.078146 48.9611,40.55443"
       style="fill:none;stroke:#ffffff;stroke-width:0.5291667;stroke-linecap:butt;stroke-linejoin:miter;stroke-miterlimit:4;stroke-dasharray:none;stroke-opacity:1" />
    <rect
       style="opacity:1;fill:none;fill-opacity:1;stroke:#000000;stroke-width:0.02645833;stroke-linecap:round;stroke-linejoin:miter;stroke-miterlimit:4;stroke-dasharray:none;stroke-opacity:1"
       id="rect28337"
       width="6.3499999"
       height="6.3499999"
       x="50.799999"
       y="36.64999" />
    <rect
       y="37.179157"
       x="51.329166"
       height="5.2916665"
       width="5.2916665"
       id="rect28339"
       style="opacity:1;fill:none;fill-opacity:1;stroke:#ff0000;stroke-width:0.02204861;stroke-linecap:round;stroke-linejoin:miter;stroke-miterlimit:4;stroke-dasharray:none;stroke-opacity:1" />
    <path
       style="opacity:1;fill:#ffd5d5;fill-opacity:1;stroke:none;stroke-width:1.14999998;stroke-linecap:round;stroke-linejoin:miter;stroke-miterlimit:4;stroke-dasharray:none;stroke-opacity:1"
       d="M 194 139.36914 A 1.15 1.15 0 0 0 192.84961 140.51953 A 1.15 1.15 0 0 0 194 141.66992 A 1.15 1.15 0 0 0 194.4375 141.58203 A 1.15 1.15 0 0 0 194.34961 142.01953 A 1.15 1.15 0 0 0 194.4375 142.45703 A 1.15 1.15 0 0 0 194 142.36914 A 1.15 1.15 0 0 0 192.84961 143.51953 A 1.15 1.15 0 0 0 194 144.66992 A 1.15 1.15 0 0 0 194.4375 144.58203 A 1.15 1.15 0 0 0 194.34961 145.01953 A 1.15 1.15 0 0 0 194.4375 145.45703 A 1.15 1.15 0 0 0 194 145.36914 A 1.15 1.15 0 0 0 192.84961 146.51953 A 1.15 1.15 0 0 0 194 147.66992 A 1.15 1.15 0 0 0 195.15039 146.51953 A 1.15 1.15 0 0 0 195.0625 146.08203 A 1.15 1.15 0 0 0 195.5 146.16992 A 1.15 1.15 0 0 0 195.9375 146.08203 A 1.15 1.15 0 0 0 195.84961 146.51953 A 1.15 1.15 0 0 0 197 147.66992 A 1.15 1.15 0 0 0 198.15039 146.51953 A 1.15 1.15 0 0 0 198.0625 146.08203 A 1.15 1.15 0 0 0 198.5 146.16992 A 1.15 1.15 0 0 0 198.9375 146.08203 A 1.15 1.15 0 0 0 198.84961 146.51953 A 1.15 1.15 0 0 0 200 147.66992 A 1.15 1.15 0 0 0 201.15039 146.51953 A 1.15 1.15 0 0 0 200 145.36914 A 1.15 1.15 0 0 0 199.5625 145.45703 A 1.15 1.15 0 0 0 199.65039 145.01953 A 1.15 1.15 0 0 0 199.5625 144.58203 A 1.15 1.15 0 0 0 200 144.66992 A 1.15 1.15 0 0 0 201.15039 143.51953 A 1.15 1.15 0 0 0 200 142.36914 A 1.15 1.15 0 0 0 199.5625 142.45703 A 1.15 1.15 0 0 0 199.65039 142.01953 A 1.15 1.15 0 0 0 199.5625 141.58203 A 1.15 1.15 0 0 0 200 141.66992 A 1.15 1.15 0 0 0 201.15039 140.51953 A 1.15 1.15 0 0 0 200 139.36914 A 1.15 1.15 0 0 0 198.84961 140.51953 A 1.15 1.15 0 0 0 198.9375 140.95703 A 1.15 1.15 0 0 0 198.5 140.86914 A 1.15 1.15 0 0 0 198.0625 140.95703 A 1.15 1.15 0 0 0 198.15039 140.51953 A 1.15 1.15 0 0 0 197 139.36914 A 1.15 1.15 0 0 0 195.84961 140.51953 A 1.15 1.15 0 0 0 195.9375 140.95703 A 1.15 1.15 0 0 0 195.5 140.86914 A 1.15 1.15 0 0 0 195.0625 140.95703 A 1.15 1.15 0 0 0 195.15039 140.51953 A 1.15 1.15 0 0 0 194 139.36914 z M 196.5625 141.58203 A 1.15 1.15 0 0 0 197 141.66992 A 1.15 1.15 0 0 0 197.4375 141.58203 A 1.15 1.15 0 0 0 197.34961 142.01953 A 1.15 1.15 0 0 0 197.4375 142.45703 A 1.15 1.15 0 0 0 197 142.36914 A 1.15 1.15 0 0 0 196.5625 142.45703 A 1.15 1.15 0 0 0 196.65039 142.01953 A 1.15 1.15 0 0 0 196.5625 141.58203 z M 195.0625 143.08203 A 1.15 1.15 0 0 0 195.5 143.16992 A 1.15 1.15 0 0 0 195.9375 143.08203 A 1.15 1.15 0 0 0 195.84961 143.51953 A 1.15 1.15 0 0 0 195.9375 143.95703 A 1.15 1.15 0 0 0 195.5 143.86914 A 1.15 1.15 0 0 0 195.0625 143.95703 A 1.15 1.15 0 0 0 195.15039 143.51953 A 1.15 1.15 0 0 0 195.0625 143.08203 z M 198.0625 143.08203 A 1.15 1.15 0 0 0 198.5 143.16992 A 1.15 1.15 0 0 0 198.9375 143.08203 A 1.15 1.15 0 0 0 198.84961 143.51953 A 1.15 1.15 0 0 0 198.9375 143.95703 A 1.15 1.15 0 0 0 198.5 143.86914 A 1.15 1.15 0 0 0 198.0625 143.95703 A 1.15 1.15 0 0 0 198.15039 143.51953 A 1.15 1.15 0 0 0 198.0625 143.08203 z M 196.5625 144.58203 A 1.15 1.15 0 0 0 197 144.66992 A 1.15 1.15 0 0 0 197.4375 144.58203 A 1.15 1.15 0 0 0 197.34961 145.01953 A 1.15 1.15 0 0 0 197.4375 145.45703 A 1.15 1.15 0 0 0 197 145.36914 A 1.15 1.15 0 0 0 196.5625 145.45703 A 1.15 1.15 0 0 0 196.65039 145.01953 A 1.15 1.15 0 0 0 196.5625 144.58203 z "
       id="path28353"
       transform="scale(0.26458333)" />
    <rect
       style="opacity:1;fill:#000000;fill-opacity:1;stroke:none;stroke-width:0.52916664;stroke-linecap:round;stroke-linejoin:miter;stroke-miterlimit:4;stroke-dasharray:none;stroke-opacity:1"
       id="rect28693"
       width="1.5875"
       height="1.5875"
       x="49.212502"
       y="36.120819" />
  </g>
</svg>
